<?xml version="1.0" standalone="no"?>
<!DOCTYPE svg PUBLIC "-//W3C//DTD SVG 20010904//EN"
 "http://www.w3.org/TR/2001/REC-SVG-20010904/DTD/svg10.dtd">
<svg version="1.0" xmlns="http://www.w3.org/2000/svg"
 width="500.000000pt" height="500.000000pt" viewBox="0 0 500.000000 500.000000"
 preserveAspectRatio="xMidYMid meet">
<metadata>
Created by potrace 1.14, written by Peter Selinger 2001-2017
</metadata>
<g transform="translate(0.000000,500.000000) scale(0.100000,-0.100000)"
fill="#000000" stroke="none">
<path d="M1928 4410 c-2 -5 -10 -10 -18 -12 -8 -2 -23 -13 -32 -25 -31 -36
-78 -134 -78 -159 0 -28 -22 -35 -92 -31 -27 2 -48 -1 -48 -5 0 -5 -5 -6 -11
-3 -22 14 -109 -36 -109 -63 0 -7 -4 -11 -9 -7 -14 8 -45 -105 -50 -183 -1 -7
-5 -11 -9 -8 -5 3 -8 -5 -8 -17 1 -16 -8 -25 -38 -34 -27 -10 -42 -10 -51 -3
-7 6 -16 7 -18 3 -3 -5 -42 -8 -87 -8 -45 0 -83 -3 -86 -7 -3 -4 -11 -5 -19
-1 -8 3 -15 0 -15 -6 0 -6 -6 -11 -12 -11 -30 0 -84 -69 -91 -115 -1 -11 -5
-24 -8 -30 -2 -5 -4 -27 -4 -47 0 -21 -2 -38 -5 -38 -3 0 -5 -49 -5 -109 0
-60 -3 -107 -7 -104 -5 2 -8 0 -8 -6 0 -5 5 -13 10 -16 7 -4 7 -11 2 -18 -5
-7 -10 -34 -11 -62 -2 -27 -7 -55 -12 -61 -5 -6 -6 -14 -2 -18 11 -10 11 -46
0 -46 -5 0 -4 -6 2 -13 6 -8 8 -17 5 -20 -6 -5 -11 -71 -17 -194 -1 -18 -6
-33 -11 -33 -4 0 -3 -6 3 -13 6 -8 8 -17 4 -21 -4 -3 -8 -38 -9 -76 -1 -38 -5
-74 -9 -79 -3 -6 0 -11 7 -11 8 0 9 -3 3 -8 -6 -4 -10 -32 -10 -62 0 -30 -3
-59 -6 -65 -12 -17 -11 -27 3 -36 7 -5 8 -9 3 -9 -10 0 -14 -21 -19 -105 -1
-17 -5 -36 -10 -43 -4 -7 -2 -12 4 -12 6 0 8 -5 3 -12 -4 -7 -8 -40 -9 -73 -5
-156 -8 -201 -12 -209 -6 -10 -10 -77 -15 -232 -2 -50 -7 -97 -12 -104 -5 -9
-4 -15 3 -18 7 -2 9 -9 5 -15 -4 -7 -8 -28 -9 -47 -3 -63 -13 -141 -20 -152
-5 -7 -2 -8 6 -3 9 6 11 4 5 -4 -8 -14 -15 -84 -17 -171 0 -30 -3 -59 -6 -65
-3 -5 -6 -37 -7 -70 0 -33 -4 -65 -8 -72 -4 -6 -3 -14 3 -18 6 -4 8 -11 5 -16
-12 -18 -14 -49 -4 -49 6 0 8 -4 5 -9 -6 -9 49 -8 154 4 36 4 81 9 100 10 19
2 51 6 70 10 19 4 51 8 70 10 19 1 50 6 68 10 19 4 43 8 55 10 55 9 93 18 107
24 8 4 27 7 43 6 15 0 27 2 27 6 0 4 11 6 25 4 14 -1 25 1 25 5 0 4 19 11 43
15 61 11 67 13 85 21 9 4 24 8 32 9 8 1 35 7 60 15 25 7 52 14 60 16 35 5 238
77 268 95 19 10 38 17 43 14 5 -4 9 -1 9 4 0 6 3 11 8 10 15 -2 52 14 52 23 0
5 4 7 9 3 5 -3 16 1 24 9 8 8 17 12 21 9 3 -4 6 -1 6 6 0 7 4 10 8 7 4 -2 27
9 51 25 24 16 47 26 52 23 5 -3 9 -1 9 4 0 5 21 20 46 33 26 13 49 29 51 36 3
7 11 13 19 13 8 0 14 5 14 11 0 5 4 8 9 5 5 -3 12 1 15 10 4 9 9 14 12 11 3
-3 13 2 23 11 9 10 32 28 51 42 18 14 46 37 62 52 15 15 28 25 28 21 0 -3 16
10 35 30 20 21 41 37 46 37 6 0 7 5 4 10 -3 6 1 10 9 10 9 0 15 6 14 13 -2 6
2 11 7 10 6 -1 19 11 30 27 11 16 28 31 38 34 12 3 17 10 14 19 -3 9 4 19 19
26 13 6 24 15 24 20 0 6 13 24 30 41 16 16 26 30 23 30 -4 0 2 7 13 15 10 8
15 15 9 15 -5 0 1 7 13 16 12 8 20 18 18 22 -2 4 2 13 10 20 8 7 14 9 14 5 0
-4 10 11 22 34 12 23 25 40 29 38 4 -3 10 7 13 20 4 17 11 23 19 18 7 -4 6 1
-3 13 -8 10 -10 16 -6 12 11 -10 38 11 30 23 -3 5 0 9 5 9 6 0 11 6 11 13 0 7
9 23 19 34 11 12 17 24 14 27 -4 3 -1 6 5 6 7 0 15 0 20 0 4 0 6 -7 6 -15 -1
-8 -2 -22 -3 -31 -1 -9 -6 -12 -13 -8 -9 5 -9 2 1 -9 10 -12 10 -17 1 -17 -6
0 -10 -6 -8 -12 3 -7 -2 -19 -10 -27 -10 -10 -11 -16 -4 -19 7 -2 4 -11 -7
-23 -11 -12 -17 -29 -14 -40 3 -10 1 -19 -4 -19 -5 0 -9 -10 -10 -22 -1 -11
-7 -24 -13 -28 -6 -4 -10 -11 -9 -16 1 -8 1 -12 -6 -31 -2 -5 -6 -18 -10 -30
-4 -13 -12 -23 -19 -23 -6 0 -4 -5 4 -10 11 -7 11 -10 2 -10 -7 0 -11 -4 -8
-9 4 -5 1 -11 -6 -13 -10 -4 -17 -23 -20 -55 -1 -7 -5 -13 -10 -13 -5 0 -6 -4
-3 -10 3 -5 1 -10 -4 -10 -6 0 -11 -8 -11 -19 0 -10 -7 -24 -15 -31 -8 -7 -15
-16 -15 -21 0 -12 -42 -103 -51 -109 -3 -3 -9 -15 -13 -28 -4 -12 -11 -20 -15
-18 -4 3 -8 -4 -8 -15 -1 -10 -9 -26 -17 -35 -9 -8 -16 -24 -16 -35 0 -11 -4
-18 -9 -15 -6 4 -30 -32 -34 -54 0 -3 -11 -16 -24 -30 -13 -14 -23 -31 -23
-38 0 -7 -7 -15 -15 -18 -8 -4 -15 -12 -15 -20 0 -8 -4 -14 -10 -14 -5 0 -10
-7 -10 -15 0 -8 -5 -15 -11 -15 -5 0 -7 -4 -4 -10 3 -5 2 -10 -4 -10 -5 0 -18
-13 -27 -29 -10 -17 -21 -28 -26 -25 -4 3 -8 0 -8 -5 0 -13 -23 -42 -68 -88
-19 -18 -31 -33 -29 -33 3 0 -27 -33 -66 -73 -40 -40 -75 -72 -79 -70 -5 3 -8
-4 -8 -13 0 -10 -3 -15 -6 -11 -3 3 -24 -11 -46 -31 -22 -20 -51 -47 -65 -60
-13 -12 -27 -20 -31 -18 -4 2 -13 -2 -20 -10 -7 -8 -9 -14 -5 -14 4 0 -14 -14
-42 -30 -27 -16 -49 -34 -48 -40 2 -5 -3 -7 -10 -4 -8 3 -14 -1 -14 -9 0 -11
74 -13 436 -11 240 1 438 3 441 4 3 1 10 1 15 0 33 -8 123 -6 118 3 -4 6 -1 7
8 1 17 -11 519 -13 525 -2 3 4 13 8 23 8 10 0 24 7 31 15 7 8 16 13 20 10 5
-3 11 4 15 15 3 11 10 20 15 20 8 0 23 38 21 53 -1 4 3 7 8 7 5 0 8 8 6 18 -1
9 2 23 8 29 6 8 6 13 0 13 -11 0 -10 26 2 54 5 11 3 21 -5 26 -8 5 -8 9 -2 11
9 3 20 147 26 346 1 18 3 33 6 33 3 0 5 33 4 73 0 39 3 81 7 93 4 11 3 28 -2
37 -6 9 -6 17 -2 17 5 0 9 53 10 118 1 64 5 149 8 187 4 39 8 99 11 135 9 135
12 172 18 177 3 3 1 13 -4 23 -5 10 -6 20 -3 24 11 11 10 70 -2 85 -7 11 -7
13 1 8 7 -4 12 12 13 51 7 176 9 214 14 218 3 3 1 19 -3 35 -5 16 -5 31 0 34
5 3 9 25 8 48 0 23 1 44 2 47 7 19 4 60 -5 60 -6 0 -7 3 0 8 6 4 11 39 11 77
1 39 4 97 8 130 10 97 18 252 20 372 0 62 3 113 6 113 3 0 5 21 4 47 -1 27 3
54 9 61 6 8 6 12 -1 12 -5 0 -10 15 -11 33 -2 67 -5 86 -13 81 -4 -3 -8 2 -8
10 0 9 -5 16 -11 16 -5 0 -7 5 -3 12 4 6 3 8 -3 5 -13 -8 -36 17 -25 28 4 5 2
5 -5 2 -6 -4 -24 -2 -40 4 -51 20 -196 58 -204 53 -4 -2 -9 1 -11 6 -2 6 -10
12 -18 14 -19 4 -51 15 -70 25 -8 4 -23 7 -32 5 -10 -1 -18 2 -18 7 0 6 -6 9
-12 7 -7 -1 -35 5 -63 15 -27 9 -61 18 -75 21 -14 2 -38 9 -55 16 -16 6 -38
13 -48 15 -28 6 -90 27 -110 37 -10 5 -22 6 -27 3 -6 -4 -10 -2 -10 4 0 6 -7
8 -15 5 -8 -4 -15 -2 -15 3 0 5 -6 10 -12 10 -22 1 -67 11 -78 18 -5 3 -18 8
-27 10 -10 2 -86 24 -169 49 -82 25 -159 47 -170 49 -10 2 -32 10 -49 17 -16
7 -42 13 -57 14 -16 0 -28 4 -28 8 0 4 -17 10 -37 14 -21 4 -43 10 -49 15 -6
5 -19 10 -30 12 -10 2 -39 10 -64 17 -25 8 -47 14 -50 15 -32 6 -108 30 -118
38 -7 5 -15 7 -19 4 -3 -4 -14 -2 -25 4 -11 6 -29 13 -41 15 -12 3 -26 6 -32
7 -5 2 -17 7 -25 12 -19 11 -168 16 -172 5z"/>
</g>
</svg>
